<?xml version="1.0" standalone="no"?>
<!DOCTYPE svg PUBLIC "-//W3C//DTD SVG 20010904//EN"
 "http://www.w3.org/TR/2001/REC-SVG-20010904/DTD/svg10.dtd">
<svg version="1.0" xmlns="http://www.w3.org/2000/svg"
 width="640.000000pt" height="640.000000pt" viewBox="0 0 640.000000 640.000000"
 preserveAspectRatio="xMidYMid meet">

<g transform="translate(0.000000,640.000000) scale(0.100000,-0.100000)"
fill="#000000" stroke="none">
<path d="M2985 5205 c-342 -57 -647 -237 -860 -510 -180 -231 -270 -477 -291
-800 l-6 -100 -43 -46 c-84 -90 -145 -255 -145 -391 l0 -68 99 0 98 0 7 70 c3
39 16 100 28 138 19 58 31 76 92 136 l71 69 3 99 c4 94 5 98 25 94 169 -35
481 4 685 85 162 65 330 164 434 257 89 79 79 77 139 36 156 -105 369 -179
621 -214 40 -6 146 -11 235 -11 109 1 164 -3 169 -11 4 -6 9 -77 11 -157 3
-80 9 -157 14 -171 5 -14 32 -45 59 -68 28 -24 62 -66 76 -94 28 -55 54 -161
54 -220 l0 -38 100 0 100 0 0 68 c0 136 -61 300 -144 391 l-43 46 -11 146
c-18 224 -73 409 -174 585 -211 368 -567 615 -983 680 -110 17 -312 16 -420
-1z m331 -196 c60 -6 111 -13 113 -15 10 -9 -34 -124 -82 -218 -221 -432 -671
-700 -1152 -684 -63 1 -117 7 -121 11 -12 12 33 154 81 252 61 126 117 207
207 301 191 199 444 325 709 353 120 12 124 12 245 0z m424 -126 c151 -82 291
-202 392 -337 63 -84 161 -273 151 -289 -9 -16 -283 0 -408 22 -135 25 -258
66 -362 120 -125 66 -121 57 -67 137 59 88 124 217 159 317 32 89 27 88 135
30z"/>
<path d="M1675 3068 c15 -51 75 -166 111 -214 42 -55 124 -130 161 -147 13 -6
48 -53 82 -112 75 -128 153 -226 270 -338 l92 -89 -3 -222 -3 -222 -37 -76
c-79 -159 -249 -268 -418 -268 -30 0 -48 -7 -72 -29 -28 -25 -33 -36 -32 -72
1 -35 7 -48 34 -72 33 -29 34 -29 124 -24 170 9 308 77 436 214 82 88 143 201
165 308 8 39 15 124 15 192 l0 123 53 -34 c196 -125 441 -208 573 -192 126 15
293 85 472 197 51 33 95 59 98 59 2 0 4 -62 4 -137 0 -82 6 -166 15 -208 22
-103 83 -220 160 -302 128 -139 271 -210 441 -220 90 -5 91 -5 124 24 27 24
33 37 34 72 1 36 -4 47 -32 72 -25 22 -42 29 -75 29 -53 0 -147 24 -207 52
-70 33 -174 144 -213 225 l-32 68 -3 248 -3 248 123 128 c78 81 147 165 188
228 49 76 73 103 97 112 92 35 201 149 263 276 65 134 69 125 -57 125 l-108 0
-28 -54 c-42 -81 -107 -141 -179 -167 -49 -18 -65 -30 -85 -63 -125 -199 -221
-313 -393 -464 -154 -135 -404 -286 -539 -326 -116 -34 -227 -14 -404 75 -318
158 -577 401 -710 664 -39 79 -50 91 -126 131 -56 30 -123 107 -150 173 l-13
31 -110 0 c-109 0 -109 0 -103 -22z"/>
</g>
</svg>
